# xmcd CD database file
#
# Track frame offsets:
#	150
#	11251
#	34828
#	66977
#	86438
#	107787
#	128093
#	141491
#	176102
#	208085
#	229441
#
# Disc length: 3335 seconds
#
# Revision: 1
# Processed by: cddbd v1.5.2PL0 Copyright (c) Steve Scherf et al.
# Submitted via: CDex 1.51
#
DISCID=9e0d050b
DTITLE=AA.VV. - AA.VV. - Italian Jazz Flute
DYEAR=2011
DGENRE=Jazz
TTITLE0=Flut3ibe/Plastic Vortex
TTITLE1=Elvio Ghigliordini/Blues in K
TTITLE2=Paolo Innarella/After Flight
TTITLE3=Gianluca Milanese/Rasenitza
TTITLE4=Andrea Bartelucci/Eucalypsus
TTITLE5=Michele Gori/Petit Malin
TTITLE6=Domenico Guastafierro/Santin
TTITLE7=Carlo Nicita/Lua
TTITLE8=Stefano Leonardi/Abrib's Circle
TTITLE9=Valentina Crimaldi/Donnaregina
TTITLE10=Stefano Benini and Sam Most/Scrapple from the Apple
EXTD=YEAR: 2011
EXTT0=
EXTT1=
EXTT2=
EXTT3=
EXTT4=
EXTT5=
EXTT6=
EXTT7=
EXTT8=
EXTT9=
EXTT10=
PLAYORDER=
